<svg xmlns="http://www.w3.org/2000/svg" id="Layer_2" viewBox="0 0 1000 1000">
  <g>
    <g>
      <g style="opacity:.25">
        <path d="m623.94,122.91c-84.26-43.23-177.06-30.53-207.27,28.36-30.21,58.89,13.6,141.68,97.86,184.91s177.06,30.53,207.27-28.36c30.21-58.89-13.6-141.68-97.86-184.91Zm-93.26,181.77c-59.37-30.46-90.24-88.79-68.95-130.29s86.68-50.44,146.05-19.98c59.37,30.46,90.24,88.79,68.95,130.29-21.29,41.5-86.68,50.44-146.05,19.98Z" style="fill:#b1bec6;stroke-width:0"/>
      </g>
      <path d="m615.1,363.85c-33.13,0-68.38-8.91-101.49-25.89-41.11-21.09-74.04-52.14-92.71-87.42-18.8-35.52-20.93-71.09-6.01-100.17,14.92-29.08,45.06-48.09,84.88-53.54,39.55-5.41,83.97,3.23,125.09,24.32,85.11,43.66,129.39,127.82,98.72,187.6-14.92,29.08-45.06,48.09-84.88,53.54-7.7,1.05-15.59,1.57-23.6,1.57Zm-91.72-264.61c-7.84,0-15.54.51-23.07,1.54-38.48,5.26-67.55,23.52-81.86,51.4-14.31,27.88-12.18,62.15,5.99,96.48,18.29,34.56,50.61,65.01,91,85.74,40.39,20.72,83.97,29.22,122.72,23.91,38.48-5.26,67.56-23.52,81.86-51.4,29.66-57.82-13.85-139.56-96.99-182.21h0c-32.54-16.7-67.16-25.45-99.65-25.45Z" style="fill:#b1bec6;stroke-width:0"/>
      <path d="m601.55,324.76c-23.44,0-48.37-6.3-71.78-18.31-60.26-30.92-91.58-90.57-69.82-132.98,21.76-42.41,88.48-51.76,148.74-20.85,29.08,14.92,52.36,36.88,65.58,61.85,13.34,25.2,14.84,50.46,4.24,71.13-10.6,20.67-32,34.18-60.25,38.04-5.45.75-11.04,1.12-16.71,1.12Zm-64.77-186.42c-32.93,0-60.87,12.79-73.27,36.96-20.75,40.45,9.79,97.69,68.08,127.6,28.35,14.55,58.94,20.51,86.12,16.79,26.92-3.68,47.25-16.43,57.24-35.91,9.99-19.47,8.49-43.42-4.22-67.43-12.83-24.25-35.52-45.62-63.87-60.16-23.46-12.04-47.9-17.84-70.08-17.84Z" style="fill:#b1bec6;stroke-width:0"/>
      <g style="opacity:.75">
        <path d="m676.73,284.69c-.28.54-.56,1.08-.85,1.6-17.76-33.29-49.67-64.59-91.59-86.1-41.93-21.51-85.96-29.18-123.35-24.19.26-.54.52-1.08.8-1.62,21.29-41.5,86.68-50.44,146.05-19.98,59.37,30.46,90.24,88.79,68.95,130.29Z" style="fill:#b1bec6;stroke-width:0"/>
      </g>
      <g style="opacity:.75">
        <path d="m514.52,336.17c-84.26-43.23-128.07-126.02-97.86-184.91l-24.59,47.94c-30.21,58.89,13.6,141.68,97.86,184.91,84.26,43.23,177.06,30.53,207.27-28.36l24.59-47.94c-30.21,58.89-123.01,71.59-207.27,28.36Z" style="fill:#b1bec6;stroke-width:0"/>
      </g>
      <path d="m675.85,290.48l-1.73-3.25c-18.33-34.37-50.56-64.65-90.74-85.26-40.19-20.62-83.57-29.13-122.18-23.98l-3.64.49,1.57-3.32c.26-.56.54-1.11.83-1.67,21.76-42.41,88.48-51.76,148.74-20.84,60.26,30.92,91.58,90.57,69.82,132.98h0c-.29.56-.58,1.11-.88,1.65l-1.78,3.22Zm-192.13-117.96c33.13,0,68.4,8.91,101.49,25.89,39.6,20.32,71.63,49.9,90.61,83.61,19-40.33-11.5-96.35-68.95-125.83-57.45-29.47-120.74-21.57-142.42,17.37,6.32-.7,12.75-1.04,19.27-1.04Z" style="fill:#b1bec6;stroke-width:0"/>
      <g>
        <path d="m590.54,411.68c-32.22,0-67.59-8.38-101.52-25.79-85.11-43.66-129.39-127.82-98.72-187.6l24.59-47.94,3.56,1.83c-14.31,27.88-12.18,62.15,5.99,96.48,18.29,34.56,50.61,65.01,91,85.74,40.39,20.72,83.97,29.22,122.72,23.91,38.48-5.26,67.55-23.52,81.86-51.4l3.56,1.83s-.02.04-.03.05l-24.57,47.88c-18.44,35.94-59.86,55.01-108.44,55.02Zm-184.07-236.15l-12.61,24.59c-29.66,57.82,13.85,139.56,96.99,182.21s174.92,30.33,204.58-27.49l12.61-24.59c-16.59,16.94-40.41,28.06-69.34,32.02-39.55,5.41-83.97-3.23-125.09-24.32-41.11-21.09-74.04-52.14-92.71-87.42-13.66-25.81-18.52-51.65-14.43-75Z" style="fill:#b1bec6;stroke-width:0"/>
        <polygon points="416.69 153.27 416.68 149.27 416.69 149.27 416.69 153.27" style="fill:#b1bec6;stroke-width:0"/>
        <polygon points="721.82 309.82 721.81 305.82 721.82 305.82 721.82 309.82" style="fill:#b1bec6;stroke-width:0"/>
      </g>
      <g style="opacity:.5">
        <path d="m768.29,314.13l-37.93,73.93-40.35-20.7c2.68-3.65,5.09-7.51,7.19-11.6l24.6-47.94c2.41-4.7,4.36-9.57,5.84-14.55l40.66,20.86Z" style="fill:#b1bec6;stroke-width:0"/>
      </g>
      <g style="opacity:.5">
        <path d="m756.38,359.1h133.48v51.87h-133.48c-8.42,0-15.26-6.84-15.26-15.26v-21.36c0-8.42,6.84-15.26,15.26-15.26Z" style="fill:#b1bec6;stroke-width:0" transform="rotate(-152.84 815.491 385.042)"/>
      </g>
      <path d="m731.23,390.75l-44.22-22.69,1.39-1.89c2.64-3.59,5-7.4,7.02-11.33l24.6-47.94c2.33-4.54,4.25-9.32,5.7-14.2l.69-2.31,44.58,22.87-39.76,77.49Zm-38.24-24.12l36.51,18.73,36.11-70.37-36.77-18.86c-1.42,4.32-3.18,8.55-5.26,12.6l-24.6,47.94c-1.76,3.43-3.77,6.77-5.99,9.97Z" style="fill:#b1bec6;stroke-width:0"/>
      <path d="m863.18,438.78c-2.65,0-5.33-.61-7.85-1.9l-120.54-61.84,25.5-49.71,120.54,61.84c4.1,2.1,7.14,5.68,8.55,10.07,1.41,4.39,1.03,9.06-1.07,13.16l-9.75,19.01c-3.05,5.95-9.11,9.38-15.38,9.38Zm-123-65.48l116.98,60.02c6.5,3.33,14.51.76,17.84-5.74l9.75-19.01c1.62-3.15,1.91-6.74.82-10.11-1.08-3.37-3.42-6.12-6.57-7.73l-116.98-60.02-21.85,42.59Z" style="fill:#b1bec6;stroke-width:0"/>
      <rect width="29.5" height="51.87" x="747.7" y="331.89" style="fill:#b1bec6;stroke-width:0" transform="rotate(27.16 762.465 357.843)"/>
      <g style="opacity:.5">
        <path d="m873.82,839.73c.14.37-.32.68-.6.4-26.19-26.65-185.8-47.15-378.78-47.15s-349.18,20.06-377.89,46.3c-.3.27-.76-.05-.59-.42L382.25,248.84c.16-.35.66-.26.7.12,4.49,49.58,44.68,103.18,106.99,135.15,78.39,40.22,164.18,32.03,200.06-16.75h.01l183.82,472.37Z" style="fill:#b1bec6;stroke-width:0"/>
      </g>
      <path d="m108.1,851.42L384.22,239.61l.6,7.8c3.92,50.93,45.54,103.89,106.03,134.92,76.83,39.42,161.76,32.48,197.54-16.15l.6-.81h2.38l.51,1.27,183.27,470.96c.46,1.17.05,2.5-.98,3.21-1.03.71-2.41.63-3.34-.21-29.06-26.01-190.87-45.62-376.37-45.62-93.39,0-183.28,4.88-253.11,13.74-68.85,8.74-113.14,20.57-124.72,33.32l-8.51,9.38Zm763.31-12.39s0,0,0,.01h0Zm-376.97-48.06c182.63,0,337.36,18.23,375.29,43.75l-180.3-463.35c-38.09,47.62-123.35,54.04-200.41,14.5-58.82-30.18-100.16-80.88-107.38-130.85L120.35,833.99c18.12-11.34,60.07-21.57,120.47-29.24,70-8.88,160.07-13.78,253.62-13.78Z" style="fill:#b1bec6;stroke-width:0"/>
      <g style="opacity:.25">
        <path d="m876.99,847.86c0,30.32-171.27,54.89-382.55,54.89s-382.55-24.57-382.55-54.89c0-2.42,1.1-4.82,3.24-7.16,24.46-26.94,184.96-47.72,379.31-47.72s358.66,21.29,380.13,48.68c1.59,2.04,2.41,4.11,2.41,6.21Z" style="fill:#b1bec6;stroke-width:0"/>
      </g>
      <path d="m494.44,904.75c-102.28,0-198.44-5.72-270.78-16.09-51.9-7.45-113.76-20.57-113.76-40.79,0-2.91,1.26-5.77,3.76-8.51,12.22-13.46,57.38-25.74,127.17-34.6,70-8.88,160.07-13.78,253.62-13.78s185.64,5,256.01,14.08c49.72,6.42,111.89,17.76,125.69,35.36,1.89,2.42,2.84,4.92,2.84,7.44,0,20.23-61.86,33.35-113.76,40.79-72.34,10.38-168.51,16.09-270.78,16.09Zm0-109.77c-93.39,0-183.28,4.88-253.11,13.74-68.85,8.74-113.14,20.57-124.72,33.32-1.8,1.98-2.72,3.94-2.72,5.82,0,25.54,152.91,52.89,380.55,52.89s380.55-27.35,380.55-52.89c0-1.61-.67-3.28-1.99-4.98-9.96-12.71-54.82-25.05-123.05-33.86-70.21-9.06-160.95-14.05-255.5-14.05Z" style="fill:#b1bec6;stroke-width:0"/>
      <path d="m602.54,721.04c-1.1,0-2-.9-2-2v-277.24c0-1.1.9-2,2-2s2,.9,2,2v277.24c0,1.1-.9,2-2,2Z" style="fill:#b1bec6;stroke-width:0"/>
      <path d="m676.7,642.07c-1.02,0-1.89-.77-1.99-1.8l-12-121.14c-.11-1.1.69-2.08,1.79-2.19,1.09-.12,2.08.69,2.19,1.79l12,121.14c.11,1.1-.69,2.08-1.79,2.19-.07,0-.13,0-.2,0Z" style="fill:#b1bec6;stroke-width:0"/>
      <g>
        <g style="opacity:.75">
          <path d="m130.87,380.33c3.52.68,7.2,2.24,10.77,4.57,4.02-.48,8.38-.56,12.95-.18,6.51.54,12.52,1.96,17.49,3.94,7.8-7.4,11.44-15.42,8.5-20.66-4.23-7.54-20.51-6.45-36.36,2.44-5.23,2.94-9.77,6.37-13.34,9.89Z" style="fill:#b1bec6;stroke-width:0"/>
        </g>
        <path d="m172.52,390.99l-1.19-.47c-4.98-1.99-10.82-3.3-16.91-3.8-4.32-.36-8.54-.31-12.55.17l-.72.09-.61-.4c-3.32-2.17-6.8-3.65-10.05-4.28l-3.72-.72,2.69-2.66c3.79-3.75,8.55-7.28,13.77-10.21,7.92-4.44,16.23-7.15,23.39-7.63,7.69-.52,13.26,1.6,15.7,5.96,3.32,5.91-.08,14.75-8.87,23.09l-.93.88Zm-23.64-8.51c1.93,0,3.89.08,5.87.25,5.99.49,11.78,1.74,16.84,3.6,6.65-6.63,9.48-13.36,7.23-17.35-1.62-2.9-5.98-4.33-11.94-3.93-6.58.44-14.28,2.97-21.7,7.13-3.77,2.12-7.27,4.56-10.3,7.16,2.41.83,4.86,2,7.23,3.49,2.21-.24,4.47-.35,6.77-.35Z" style="fill:#b1bec6;stroke-width:0"/>
        <path d="m119.83,421.48c10.34,14.94,26.46,21.7,36.01,15.09,5.69-3.93,7.75-11.73,6.3-20.55-3.21.23-6.63.22-10.15-.07-18.11-1.51-32.23-9.72-31.51-18.34.15-1.79.91-3.44,2.2-4.94,3.38-3.94,10.31-6.75,18.95-7.77-3.56-2.33-7.25-3.89-10.77-4.57h-.01c-4.64-.9-8.99-.28-12.47,2.13-9.54,6.6-8.9,24.07,1.45,39.02Z" style="fill:#b1bec6;stroke-width:0"/>
        <g style="opacity:.5">
          <path d="m162.13,416.03c-3.2.23-6.63.22-10.15-.07-18.11-1.52-32.22-9.73-31.51-18.35.16-1.79.91-3.44,2.2-4.94,3.38-3.93,10.31-6.74,18.96-7.77,4.02-.48,8.39-.56,12.95-.18,6.51.54,12.52,1.95,17.48,3.94,8.86,3.53,14.48,8.87,14.01,14.39-.57,6.95-10.58,12.05-23.94,12.97Z" style="fill:#b1bec6;stroke-width:0"/>
        </g>
        <path d="m157.61,418.19c-1.89,0-3.83-.08-5.78-.24-19.52-1.63-34.16-10.64-33.34-20.5.19-2.2,1.09-4.24,2.68-6.08,3.67-4.28,11.05-7.36,20.23-8.45,4.25-.51,8.75-.57,13.35-.19,6.5.54,12.74,1.95,18.06,4.07,10.08,4.02,15.79,10.15,15.26,16.42-.64,7.83-11.01,13.78-25.79,14.8-1.52.11-3.08.17-4.67.17Zm-8.74-31.71c-2.39,0-4.73.14-7,.41-8.2.97-14.64,3.55-17.67,7.08-1.03,1.2-1.61,2.48-1.73,3.81-.54,6.56,11.26,14.64,29.69,16.18,3.38.27,6.69.3,9.83.07h0c12.54-.86,21.62-5.44,22.09-11.14.37-4.35-4.52-9.09-12.76-12.37-4.95-1.98-10.8-3.29-16.91-3.8-1.87-.16-3.73-.24-5.55-.24Z" style="fill:#b1bec6;stroke-width:0"/>
      </g>
      <path d="m284.9,731.48c-1,0-2.02-.05-3.01-.16-1.1-.12-1.9-1.1-1.78-2.2.12-1.1,1.1-1.89,2.2-1.78,3.6.38,7.3-.04,11.01-1.23,1.05-.34,2.18.24,2.52,1.29s-.24,2.18-1.29,2.52c-3.22,1.03-6.46,1.56-9.64,1.56Zm-14.06-4.01c-.35,0-.71-.09-1.04-.29-2.01-1.22-3.96-2.71-5.81-4.43-1.35-1.26-2.59-2.56-3.68-3.86-.71-.84-.6-2.11.24-2.82.85-.71,2.11-.6,2.82.24.99,1.18,2.12,2.36,3.35,3.51,1.64,1.53,3.38,2.86,5.15,3.94.94.57,1.24,1.8.67,2.75-.38.62-1.04.96-1.71.96Zm33.73-2.9c-.62,0-1.24-.29-1.63-.84-.64-.9-.43-2.15.46-2.79,3.01-2.15,5.86-4.77,8.47-7.78.72-.83,1.99-.92,2.82-.2.83.72.92,1.99.2,2.82-2.82,3.25-5.9,6.08-9.17,8.41-.35.25-.76.37-1.16.37Zm70.51-.51c-.69,0-1.37-.36-1.74-1.01-1.98-3.47-4.12-6.81-6.36-9.93-.64-.9-.44-2.15.46-2.79.9-.64,2.15-.44,2.79.46,2.31,3.23,4.53,6.68,6.58,10.27.55.96.22,2.18-.74,2.73-.31.18-.65.26-.99.26Zm-118.91-14.91c-.89,0-1.7-.6-1.94-1.5-.45-1.75-.68-3.52-.68-5.27,0-2.62.51-5.22,1.51-7.73.41-1.03,1.58-1.52,2.6-1.11,1.03.41,1.52,1.58,1.11,2.6-.81,2.03-1.23,4.13-1.23,6.24,0,1.41.19,2.85.55,4.28.27,1.07-.37,2.16-1.44,2.43-.17.04-.33.06-.5.06Zm64.09-2.49c-.33,0-.67-.08-.98-.26-.96-.54-1.31-1.76-.77-2.72,1.9-3.38,3.46-6.95,4.65-10.61.34-1.05,1.47-1.63,2.52-1.29,1.05.34,1.63,1.47,1.29,2.52-1.27,3.91-2.94,7.73-4.96,11.34-.37.65-1.05,1.02-1.75,1.02Zm40.83-2.04c-.54,0-1.09-.22-1.48-.66-2.66-2.93-5.49-5.69-8.41-8.19-.84-.72-.94-1.98-.22-2.82.72-.84,1.98-.94,2.82-.22,3.05,2.61,6,5.48,8.77,8.54.74.82.68,2.08-.14,2.82-.38.35-.86.52-1.34.52Zm-18.2-15.53c-.37,0-.75-.1-1.08-.32-3.3-2.12-6.75-4.01-10.27-5.61-1.01-.46-1.45-1.64-.99-2.65s1.64-1.45,2.65-.99c3.69,1.68,7.31,3.66,10.77,5.89.93.6,1.2,1.83.6,2.76-.38.59-1.03.92-1.68.92Zm-78.89-1.26c-.56,0-1.11-.23-1.51-.68-.73-.83-.64-2.1.19-2.82,2.96-2.58,6.53-4.83,10.61-6.68,1-.46,2.19-.01,2.65,1,.46,1.01,0,2.19-1,2.65-3.72,1.69-6.96,3.72-9.63,6.05-.38.33-.85.49-1.31.49Zm63.56-3.88c-.07,0-.14,0-.21-.01-1.1-.11-1.9-1.09-1.79-2.19.18-1.74.27-3.5.27-5.22,0-2.11-.14-4.23-.41-6.29-.14-1.09.63-2.1,1.72-2.24,1.09-.14,2.1.63,2.24,1.72.29,2.23.44,4.52.44,6.81,0,1.86-.1,3.75-.29,5.63-.11,1.03-.97,1.8-1.99,1.8Zm-6.44-4.76c-.18,0-.37-.03-.55-.08-3.76-1.07-7.61-1.86-11.44-2.33-1.1-.14-1.87-1.14-1.74-2.23.14-1.1,1.13-1.88,2.23-1.74,4.04.5,8.09,1.33,12.05,2.46,1.06.3,1.68,1.41,1.38,2.47-.25.88-1.05,1.45-1.92,1.45Zm-35.62-1.44c-.92,0-1.75-.64-1.95-1.58-.23-1.08.45-2.14,1.53-2.38,3.94-.86,8.06-1.37,12.24-1.53,1.09-.05,2.03.82,2.07,1.92.04,1.1-.82,2.03-1.92,2.07-3.95.15-7.84.63-11.54,1.44-.14.03-.29.05-.43.05Zm38.9-17.35c-.79,0-1.54-.48-1.86-1.26-1.41-3.52-3.27-6.89-5.55-10.04-.65-.89-.45-2.15.45-2.79.89-.65,2.15-.45,2.79.45,2.47,3.41,4.49,7.08,6.02,10.9.41,1.03-.09,2.19-1.11,2.6-.24.1-.5.14-.74.14Zm-13.83-19.33c-.47,0-.95-.17-1.33-.51-2.78-2.48-5.92-4.8-9.35-6.91-.94-.58-1.23-1.81-.66-2.75.58-.94,1.81-1.23,2.75-.66,3.63,2.23,6.96,4.7,9.92,7.33.82.74.9,2,.16,2.82-.4.44-.94.67-1.49.67Zm-20.27-12.64c-.27,0-.54-.05-.8-.17-3.44-1.5-7.15-2.88-11.03-4.1-1.05-.33-1.64-1.45-1.31-2.51.33-1.05,1.45-1.64,2.51-1.31,4.02,1.26,7.87,2.69,11.44,4.25,1.01.44,1.47,1.62,1.03,2.63-.33.75-1.06,1.2-1.83,1.2Zm-22.83-7.24c-.15,0-.3-.02-.44-.05-4.03-.91-7.97-1.87-11.72-2.84-1.07-.28-1.71-1.37-1.43-2.44.28-1.07,1.37-1.71,2.44-1.43,3.7.96,7.6,1.91,11.6,2.81,1.08.24,1.75,1.32,1.51,2.39-.21.93-1.04,1.56-1.95,1.56Zm-23.21-6.06c-.19,0-.39-.03-.58-.09-4.01-1.21-7.87-2.48-11.49-3.77-1.04-.37-1.58-1.51-1.21-2.56.37-1.04,1.52-1.58,2.56-1.21,3.56,1.27,7.36,2.51,11.3,3.7,1.06.32,1.66,1.44,1.34,2.49-.26.87-1.05,1.42-1.91,1.42Zm-22.56-8.11c-.26,0-.53-.05-.79-.16-3.9-1.68-7.59-3.46-10.96-5.28-.97-.53-1.33-1.74-.81-2.71.53-.97,1.74-1.33,2.71-.81,3.26,1.77,6.84,3.49,10.64,5.13,1.01.44,1.48,1.61,1.04,2.63-.33.76-1.06,1.21-1.84,1.21Zm-20.98-11.52c-.4,0-.81-.12-1.16-.37-3.54-2.53-6.69-5.23-9.37-8.01-.77-.79-.74-2.06.05-2.83.79-.77,2.06-.74,2.83.05,2.52,2.61,5.48,5.14,8.82,7.54.9.64,1.1,1.89.46,2.79-.39.54-1,.83-1.63.83Zm-16.3-17.31c-.7,0-1.37-.36-1.74-1.01-2.07-3.65-3.6-7.57-4.55-11.66-.25-1.08.42-2.15,1.5-2.4,1.08-.25,2.15.42,2.4,1.5.86,3.71,2.25,7.28,4.13,10.59.55.96.21,2.18-.75,2.73-.31.18-.65.26-.98.26Zm-5.52-23.03h-.04c-1.1-.02-1.98-.93-1.96-2.04.07-3.84.51-7.84,1.34-12.25.2-1.09,1.25-1.8,2.33-1.6,1.09.2,1.8,1.25,1.6,2.33-.79,4.18-1.2,7.97-1.27,11.58-.02,1.09-.91,1.96-2,1.96Zm4.15-23.57c-.19,0-.37-.03-.56-.08-1.06-.31-1.67-1.42-1.36-2.48.97-3.34,2.14-7,3.68-11.52.07-.2.17-.39.29-.55-.31-.66-.24-1.47.25-2.08.68-.87,1.94-1.01,2.81-.33,3.2,2.53,6.48,4.58,9.75,6.09,1,.46,1.44,1.65.98,2.65-.46,1-1.65,1.44-2.65.98-2.66-1.23-5.31-2.77-7.92-4.62-1.38,4.07-2.45,7.42-3.34,10.49-.25.87-1.05,1.44-1.92,1.44Zm29.5-3.61c-1.42,0-2.85-.08-4.25-.25-1.1-.13-1.88-1.12-1.76-2.22s1.13-1.89,2.22-1.76c3.68.43,7.48.22,11.25-.62,1.08-.24,2.15.44,2.39,1.52.24,1.08-.44,2.15-1.52,2.39-2.78.62-5.58.93-8.34.93Zm19.07-5.13c-.68,0-1.35-.35-1.72-.98-.56-.95-.25-2.18.71-2.74,3.63-2.14,5.91-4.73,6.76-7.68.31-1.06,1.41-1.67,2.48-1.37,1.06.31,1.67,1.42,1.37,2.48-1.14,3.96-4.03,7.33-8.57,10.01-.32.19-.67.28-1.01.28Zm-53.43-12.95c-.54,0-1.08-.22-1.48-.65-2.59-2.85-5.18-6.06-7.67-9.53-.64-.9-.44-2.15.46-2.79.9-.64,2.15-.44,2.79.46,2.41,3.35,4.89,6.44,7.38,9.17.74.82.68,2.08-.13,2.83-.38.35-.87.52-1.35.52Zm12.46-1.07c-.22,0-.44-.04-.66-.11-1.04-.36-1.59-1.5-1.23-2.55l.22-.63c1.43-4.11,3.31-7.66,5.59-10.55.68-.87,1.94-1.02,2.81-.33.87.68,1.02,1.94.33,2.81-2.01,2.54-3.67,5.7-4.95,9.39l-.22.63c-.29.82-1.06,1.34-1.89,1.34Zm46.48-6.25c-.66,0-1.31-.33-1.69-.93-1.83-2.9-4.57-5.54-7.93-7.65-.94-.59-1.22-1.82-.63-2.76.59-.94,1.82-1.22,2.76-.63,3.87,2.42,7.04,5.5,9.19,8.91.59.93.31,2.17-.63,2.76-.33.21-.7.31-1.06.31Zm-31.51-11.45c-.81,0-1.57-.49-1.87-1.29-.39-1.03.13-2.19,1.16-2.58,2.66-1.01,5.53-1.52,8.52-1.52h0c1.41,0,2.86.12,4.31.35,1.09.17,1.83,1.2,1.66,2.29-.17,1.09-1.19,1.83-2.29,1.66-1.24-.2-2.48-.3-3.68-.3h0c-2.5,0-4.89.43-7.1,1.26-.23.09-.47.13-.71.13Zm-41.52-.64c-.68,0-1.35-.35-1.72-.98-2-3.37-3.96-6.96-5.84-10.67-.5-.99-.1-2.19.89-2.69.99-.5,2.19-.1,2.69.89,1.83,3.63,3.75,7.14,5.7,10.43.56.95.25,2.18-.7,2.74-.32.19-.67.28-1.02.28Zm-10.85-21.45c-.78,0-1.51-.45-1.84-1.21-2.89-6.73-4.38-11.21-4.45-11.4-.35-1.05.22-2.18,1.27-2.53,1.05-.35,2.18.22,2.53,1.27.02.04,1.51,4.52,4.33,11.08.44,1.01-.03,2.19-1.05,2.63-.26.11-.52.16-.79.16Z" style="fill:#b1bec6;stroke-width:0"/>
      <g style="opacity:.75">
        <path d="m417.15,548.72v35.97c0,26.65,5.97,47.26,17.97,61.74,10.58,12.75,24.99,19.94,43.23,21.39,2.41.2,4.88.31,7.43.31h1.49c21.26-.34,37.77-7.63,49.54-21.83,12-14.58,18.04-35.09,18.04-61.61v-36.08c0-14.34-1.73-26.89-5.22-37.7-.37-1.22-.78-2.44-1.22-3.63-2.78-7.49-6.48-14.07-11.05-19.77-.14-.2-.31-.41-.47-.61-4.37-5.29-9.39-9.63-15.09-12.99-9.9-5.83-21.8-8.75-35.74-8.75h-.07c-2.61,0-5.15.14-7.63.3-18.21,1.56-32.62,8.75-43.16,21.53-4.78,5.8-8.61,12.58-11.46,20.28-4.41,11.63-6.58,25.46-6.58,41.43Zm45.72-5.94c0-14.2,1.86-24.8,5.55-31.81,3.69-6.99,9.56-10.49,17.57-10.51h.07c7.87,0,13.58,3.25,17.16,9.76,3.57,6.51,5.5,16.38,5.76,29.58v50.46c0,14.74-1.86,25.51-5.57,32.35-3.68,6.78-9.49,10.19-17.43,10.24h-.2c-7.78,0-13.52-3.32-17.24-9.97-3.71-6.64-5.6-17.06-5.69-31.26v-48.83Z" style="fill:#b1bec6;stroke-width:0"/>
      </g>
    </g>
    <path d="m261.76,381.94c-7.2,0-13.06-5.86-13.06-13.06s5.86-13.06,13.06-13.06,13.06,5.86,13.06,13.06-5.86,13.06-13.06,13.06Zm0-22.11c-4.99,0-9.06,4.06-9.06,9.06s4.06,9.06,9.06,9.06,9.06-4.06,9.06-9.06-4.06-9.06-9.06-9.06Z" style="fill:#b1bec6;stroke-width:0"/>
    <path d="m846.71,546.13c-8.05,0-14.6-6.55-14.6-14.6s6.55-14.6,14.6-14.6,14.6,6.55,14.6,14.6-6.55,14.6-14.6,14.6Zm0-25.2c-5.84,0-10.6,4.75-10.6,10.6s4.76,10.6,10.6,10.6,10.6-4.76,10.6-10.6-4.75-10.6-10.6-10.6Z" style="fill:#b1bec6;stroke-width:0"/>
    <path d="m126.12,692.1c-7.16,0-12.99-5.83-12.99-12.99s5.83-12.99,12.99-12.99,12.99,5.83,12.99,12.99-5.83,12.99-12.99,12.99Zm0-21.98c-4.96,0-8.99,4.03-8.99,8.99s4.03,8.99,8.99,8.99,8.99-4.03,8.99-8.99-4.03-8.99-8.99-8.99Z" style="fill:#b1bec6;stroke-width:0"/>
  </g>
  <g>
    <g style="opacity:.25">
      <path d="m176.23,594.03h3.13c15.3,0,29.76,3.66,42.53,10.15l89.52-198.36c-1.75.1-3.51.15-5.28.15h-129.9c-25.97,0-49.47,10.53-66.49,27.54-17.01,17.02-27.54,40.54-27.54,66.49,0,51.94,42.11,94.03,94.03,94.03Z" style="fill:#b1bec6;stroke-width:0"/>
    </g>
    <g style="opacity:.25">
      <path d="m176.23,217.92h129.9c29.97,0,56.67,14.03,73.89,35.87l2.24-4.97.57-1.26c-1.32-16.97,1.58-33.43,9.24-48.36l24.6-47.93c30.21-58.89,123.01-71.59,207.27-28.36,55.54,28.5,93.5,74.18,104.28,118.87,16.62-14.84,38.56-23.87,62.6-23.87h32.96c25.97,0,49.47-10.53,66.49-27.54,17.01-17.02,27.54-40.52,27.54-66.49,0-51.93-42.11-94.03-94.03-94.03H176.23c-25.97,0-49.47,10.53-66.49,27.54-17.01,17.02-27.54,40.52-27.54,66.49,0,51.93,42.11,94.03,94.03,94.03Z" style="fill:#b1bec6;stroke-width:0"/>
    </g>
    <g style="opacity:.25">
      <path d="m879.11,423.98l-2.32,4.51c-3.85,7.5-13.04,10.45-20.54,6.61l-56.78-29.13h-8.65c-22.34,0-42.85-7.79-58.98-20.79l-1.48,2.89-40.35-20.7,88.2,226.67h45.56c25.97,0,49.47-10.52,66.49-27.54,17.01-17.02,27.54-40.52,27.54-66.49,0-31.24-15.25-58.92-38.7-76.02Z" style="fill:#b1bec6;stroke-width:0"/>
    </g>
    <g style="opacity:.25">
      <path d="m853.23,786.81l20.04,51.5s.03.09.05.14l.5,1.28c.15.37-.32.68-.59.39-.11-.12-.23-.23-.35-.34.64.62,1.2,1.24,1.69,1.87,1.59,2.04,2.42,4.11,2.42,6.21,0,30.32-171.28,54.88-382.55,54.88s-382.54-24.56-382.54-54.88c0-2.43,1.09-4.82,3.23-7.16l.8-1.76,21.98-48.71c-10.57,4.72-20.1,11.33-28.18,19.4-17.01,17.01-27.54,40.51-27.54,66.48,0,51.94,42.11,94.03,94.03,94.03h647.54c25.97,0,49.47-10.53,66.49-27.54,17.01-17.01,27.54-40.52,27.54-66.49,0-41.64-27.07-76.95-64.57-89.31Z" style="fill:#b1bec6;stroke-width:0"/>
    </g>
  </g>
</svg>
